<?xml version="1.0" encoding="UTF-8" standalone="no"?>
<!DOCTYPE svg PUBLIC "-//W3C//DTD SVG 1.1//EN" "http://www.w3.org/Graphics/SVG/1.1/DTD/svg11.dtd">
<svg version="1.1" xmlns="http://www.w3.org/2000/svg" xmlns:xlink="http://www.w3.org/1999/xlink" preserveAspectRatio="xMidYMid meet" viewBox="793.284802888371 1195.1185080989317 802.979529797234 846.1191653255901" width="802.98" height="846.12"><defs><path d="M1595.63 1402.99L1594.54 1524.97L1244.7 1705.86L793.79 1564.23L794.52 1439.53L1151.08 1331.38L1595.63 1402.99Z" id="fvTtHjxRz"></path><linearGradient id="gradientb1eO5JaLJi" gradientUnits="userSpaceOnUse" x1="1192.14" y1="834.38" x2="1276.27" y2="1807.71"><stop style="stop-color: #ffffff;stop-opacity: 1" offset="0%"></stop><stop style="stop-color: #2bff88;stop-opacity: 1" offset="100%"></stop></linearGradient><path d="M793.3 1876.69L1246.41 2041.24L1596.26 1807.34L1596.26 1471.24L1236.57 1661.89L793.28 1522.89L793.3 1876.69Z" id="a4ZIAOGWH6"></path><linearGradient id="gradienta8QiQBu9S" gradientUnits="userSpaceOnUse" x1="1236.52" y1="1484.49" x2="1233.3" y2="2410.21"><stop style="stop-color: #ffffff;stop-opacity: 1" offset="0%"></stop><stop style="stop-color: #2bff88;stop-opacity: 1" offset="100%"></stop></linearGradient><path d="M1401.8 1500.27L1400.12 1938.86L1484.26 1882.38L1482.81 1461.11L1045.92 1363.62L958.45 1390.39L1401.8 1500.27Z" id="e5b9M8xe6"></path><linearGradient id="gradientb1x8IjzPXG" gradientUnits="userSpaceOnUse" x1="753.54" y1="1073.71" x2="1589" y2="1977.35"><stop style="stop-color: #e6e6e6;stop-opacity: 1" offset="0%"></stop><stop style="stop-color: #5f6fed;stop-opacity: 1" offset="100%"></stop></linearGradient><path d="M954.05 1489.06L948.42 1938.21L1042.49 1972.01L1047.22 1516.06L1427.09 1378.39L1332.67 1364.04L954.05 1489.06Z" id="onqlCXlP"></path><linearGradient id="gradientcK8obP2ZP" gradientUnits="userSpaceOnUse" x1="1039.25" y1="2103.81" x2="1272.16" y2="1202.75"><stop style="stop-color: #5f6fed;stop-opacity: 1" offset="0%"></stop><stop style="stop-color: #e6e6e6;stop-opacity: 1" offset="100%"></stop></linearGradient><path d="M1085.01 1343.15C1097.01 1359.05 1143.54 1385.96 1143.54 1385.96C1146.07 1389.02 1166.34 1413.49 1168.88 1416.54C1168.88 1416.54 1142.67 1425.28 1129.56 1423.53C1116.46 1421.78 1051.45 1402.92 1026.98 1388.94C1002.52 1374.96 958.84 1325.7 956.22 1314.34C953.6 1302.98 941.53 1273.45 952.01 1254.23C962.49 1235 982.78 1226.08 988.9 1225.21C995.02 1224.33 1052.68 1254.04 1052.68 1254.04C1052.85 1255.32 1053.73 1261.73 1055.3 1273.26C1058.24 1297.53 1068.14 1320.82 1085.01 1343.15Z" id="a41Y6UEAQ"></path><radialGradient id="gradienta63YUMLiUh" gradientUnits="userSpaceOnUse" cx="1135.9" cy="1400.02" r="444.75"><stop style="stop-color: #8f8f8f;stop-opacity: 1" offset="0%"></stop><stop style="stop-color: #5f6fed;stop-opacity: 1" offset="100%"></stop></radialGradient><path d="M1203.67 1459.23C1207.15 1482.52 1186.06 1507.72 1230.1 1556.46C1245 1550.73 1247.8 1536.66 1247.8 1536.66C1251.34 1538.58 1279.68 1553.96 1283.22 1555.88C1283.22 1555.88 1257.66 1508.93 1259.45 1490.46C1261.24 1471.99 1267.71 1449.67 1255.61 1441.32C1243.51 1432.98 1180.99 1426.91 1180.99 1426.91C1179.7 1427.45 1173.22 1430.17 1161.56 1435.07C1187.32 1435.65 1201.36 1443.71 1203.67 1459.23Z" id="aoaC3u9ml"></path><linearGradient id="gradientb6NtX5H7RR" gradientUnits="userSpaceOnUse" x1="1259.41" y1="1572.71" x2="1210.03" y2="1413.66"><stop style="stop-color: #5f6fed;stop-opacity: 1" offset="0%"></stop><stop style="stop-color: #ffffff;stop-opacity: 1" offset="100%"></stop></linearGradient><path d="M1042.87 1195.15L1043.82 1195.17L1044.77 1195.21L1045.71 1195.27L1046.66 1195.33L1047.6 1195.4L1048.54 1195.48L1049.48 1195.58L1050.42 1195.69L1051.35 1195.81L1052.28 1195.94L1053.21 1196.08L1054.14 1196.24L1055.06 1196.4L1055.98 1196.58L1056.89 1196.78L1057.81 1196.98L1058.71 1197.2L1059.62 1197.43L1060.52 1197.67L1061.41 1197.93L1062.3 1198.2L1063.19 1198.48L1064.07 1198.78L1064.95 1199.09L1065.82 1199.41L1066.68 1199.75L1067.54 1200.1L1068.4 1200.47L1069.25 1200.85L1070.09 1201.25L1070.92 1201.66L1074.13 1203.33L1077.26 1205.1L1080.32 1206.96L1083.3 1208.91L1086.22 1210.96L1089.07 1213.11L1091.85 1215.36L1094.58 1217.71L1097.25 1220.18L1099.86 1222.74L1102.43 1225.42L1104.95 1228.22L1107.42 1231.13L1109.85 1234.15L1112.24 1237.3L1114.59 1240.56L1116.91 1243.95L1119.2 1247.47L1121.47 1251.12L1123.71 1254.89L1125.93 1258.8L1128.13 1262.85L1130.32 1267.03L1132.49 1271.35L1134.66 1275.82L1136.82 1280.43L1138.98 1285.18L1141.14 1290.09L1143.3 1295.14L1145.46 1300.35L1147.64 1305.71L1149.83 1311.23L1152.03 1316.91L1154.25 1322.76L1156.49 1328.76L1158.76 1334.94L1161.05 1341.28L1163.38 1347.79L1165.73 1354.48L1168.12 1361.34L1169.66 1366.04L1170.92 1370.43L1171.91 1374.54L1172.65 1378.38L1173.14 1381.94L1173.41 1385.25L1173.46 1388.31L1173.31 1391.13L1172.97 1393.73L1172.44 1396.1L1171.75 1398.26L1170.91 1400.21L1169.93 1401.98L1168.81 1403.56L1167.58 1404.96L1166.25 1406.2L1164.82 1407.29L1163.31 1408.23L1161.74 1409.03L1160.11 1409.71L1158.44 1410.26L1156.74 1410.71L1155.03 1411.05L1153.31 1411.31L1151.59 1411.48L1149.9 1411.59L1148.24 1411.63L1146.63 1411.61L1145.07 1411.55L1143.58 1411.46L1142.18 1411.34L1140.87 1411.2L1139.66 1411.06L1138.58 1410.92L1137.63 1410.79L1136.83 1410.68L1136.18 1410.6L1135.7 1410.56L1135.4 1410.57L1135.3 1410.64L1135.15 1410.63L1134.68 1410.62L1133.92 1410.59L1132.88 1410.55L1131.56 1410.48L1129.98 1410.39L1128.14 1410.27L1126.06 1410.12L1123.75 1409.93L1121.21 1409.7L1118.46 1409.43L1115.52 1409.11L1112.38 1408.74L1109.06 1408.31L1105.58 1407.82L1101.93 1407.27L1098.14 1406.65L1094.2 1405.97L1090.15 1405.21L1085.97 1404.37L1081.69 1403.44L1077.31 1402.44L1072.85 1401.34L1068.32 1400.15L1063.72 1398.86L1059.07 1397.48L1054.37 1395.98L1049.65 1394.38L1044.9 1392.67L1040.14 1390.84L1035.38 1388.89L1030.63 1386.82L1025.9 1384.62L1021.2 1382.29L1016.55 1379.82L1011.94 1377.22L1007.4 1374.47L1002.93 1371.58L998.55 1368.53L994.26 1365.34L991.19 1362.9L988.18 1360.39L985.22 1357.79L982.32 1355.12L979.48 1352.39L976.71 1349.59L974 1346.72L971.37 1343.8L968.8 1340.83L966.32 1337.82L963.92 1334.76L961.59 1331.66L959.36 1328.53L957.21 1325.37L955.16 1322.19L953.2 1318.98L951.34 1315.76L949.58 1312.53L947.93 1309.29L946.38 1306.05L944.95 1302.82L943.63 1299.59L942.42 1296.37L941.34 1293.17L940.38 1289.98L939.54 1286.82L938.83 1283.7L938.26 1280.6L937.82 1277.55L937.52 1274.53L937.36 1271.56L937.35 1268.65L937.48 1265.79L937.76 1262.99L938.2 1260.26L938.79 1257.6L939.54 1255.01L940.46 1252.5L941.54 1250.07L942.79 1247.73L943.84 1246L944.99 1244.27L946.24 1242.52L947.57 1240.76L949 1239L950.51 1237.24L952.11 1235.48L953.79 1233.73L955.55 1231.98L957.38 1230.24L959.29 1228.52L961.27 1226.8L963.31 1225.11L965.42 1223.43L967.6 1221.78L969.83 1220.15L972.12 1218.55L974.47 1216.98L976.86 1215.44L979.31 1213.94L981.8 1212.47L984.33 1211.05L986.91 1209.67L989.52 1208.33L992.17 1207.04L994.86 1205.81L997.57 1204.63L1000.31 1203.5L1003.07 1202.44L1005.86 1201.43L1008.66 1200.49L1011.48 1199.62L1014.32 1198.81L1017.16 1198.08L1020.02 1197.42L1022.87 1196.84L1025.74 1196.34L1028.6 1195.92L1031.46 1195.59L1034.31 1195.35L1035.26 1195.28L1036.22 1195.23L1037.17 1195.19L1038.12 1195.16L1039.07 1195.13L1040.02 1195.12L1040.97 1195.12L1041.92 1195.13L1042.87 1195.15ZM986.84 1230.21L984.03 1230.76L981.16 1231.54L977.7 1232.77L974.44 1234.13L971.4 1235.61L968.57 1237.22L965.94 1238.94L963.51 1240.77L961.28 1242.71L959.25 1244.76L957.41 1246.9L955.76 1249.14L954.29 1251.48L953.01 1253.89L951.9 1256.39L950.98 1258.97L950.22 1261.62L949.64 1264.35L949.22 1267.13L948.97 1269.98L948.88 1272.89L948.95 1275.85L949.17 1278.85L949.54 1281.91L950.07 1285L950.73 1288.12L951.54 1291.28L952.49 1294.47L953.58 1297.68L954.8 1300.91L956.14 1304.15L957.62 1307.4L959.22 1310.66L960.93 1313.92L962.77 1317.18L964.72 1320.43L966.78 1323.67L968.95 1326.89L971.22 1330.1L973.6 1333.28L976.07 1336.44L978.64 1339.56L978.85 1339.89L979.2 1340.35L979.7 1340.93L980.35 1341.63L981.14 1342.44L982.07 1343.36L983.14 1344.38L984.34 1345.5L985.67 1346.71L987.14 1347.99L988.74 1349.36L990.46 1350.8L992.31 1352.3L994.28 1353.87L996.37 1355.49L998.57 1357.15L1000.9 1358.86L1003.33 1360.61L1005.88 1362.39L1008.53 1364.19L1011.29 1366.02L1014.16 1367.85L1017.13 1369.7L1020.2 1371.55L1023.36 1373.39L1026.62 1375.23L1029.98 1377.05L1033.42 1378.85L1036.95 1380.62L1040.57 1382.36L1044.28 1384.06L1048.06 1385.72L1051.92 1387.32L1055.87 1388.88L1059.88 1390.37L1063.97 1391.79L1068.13 1393.14L1072.36 1394.41L1076.66 1395.59L1081.02 1396.69L1085.31 1397.71L1089.41 1398.68L1093.32 1399.6L1097.04 1400.48L1100.59 1401.3L1103.96 1402.08L1107.16 1402.81L1110.19 1403.5L1113.06 1404.15L1115.77 1404.76L1118.33 1405.32L1120.74 1405.85L1123 1406.35L1125.12 1406.8L1127.11 1407.23L1128.97 1407.62L1130.7 1407.98L1132.3 1408.3L1133.79 1408.6L1135.16 1408.88L1136.42 1409.12L1137.58 1409.34L1138.63 1409.54L1139.59 1409.71L1140.46 1409.87L1141.24 1410L1141.94 1410.12L1142.55 1410.22L1143.1 1410.3L1143.57 1410.37L1143.98 1410.43L1144.32 1410.47L1144.61 1410.51L1144.84 1410.53L1145.03 1410.55L1145.18 1410.56L1145.28 1410.57L1145.35 1410.57L1145.39 1410.58L1145.4 1410.58L1134.67 1396.69L1134.57 1396.55L1134.28 1396.13L1133.81 1395.44L1133.17 1394.5L1132.36 1393.32L1131.39 1391.91L1130.26 1390.28L1129 1388.44L1127.6 1386.41L1126.08 1384.2L1124.43 1381.82L1122.68 1379.29L1120.82 1376.6L1118.87 1373.79L1116.83 1370.85L1114.71 1367.8L1112.52 1364.66L1110.27 1361.43L1107.96 1358.13L1105.61 1354.76L1103.21 1351.35L1100.79 1347.9L1098.34 1344.43L1095.87 1340.94L1093.4 1337.45L1090.93 1333.97L1088.47 1330.52L1086.02 1327.1L1083.6 1323.72L1081.21 1320.41L1078.85 1317.17L1076.55 1314.01L1074.31 1310.94L1072.12 1307.99L1070.01 1305.15L1067.98 1302.45L1066.04 1299.88L1064.19 1297.48L1062.45 1295.24L1060.82 1293.18L1059.53 1291.52L1058.21 1289.76L1056.86 1287.9L1055.49 1285.95L1054.09 1283.92L1052.65 1281.82L1051.19 1279.65L1049.69 1277.44L1048.17 1275.17L1046.61 1272.87L1045.01 1270.55L1043.39 1268.2L1041.72 1265.85L1040.03 1263.49L1038.29 1261.15L1036.52 1258.82L1034.71 1256.52L1032.87 1254.25L1030.98 1252.03L1029.06 1249.87L1027.09 1247.76L1025.09 1245.73L1023.04 1243.77L1020.95 1241.91L1018.81 1240.15L1016.64 1238.49L1014.42 1236.94L1012.15 1235.53L1009.84 1234.24L1007.48 1233.11L1005.07 1232.12L1002.61 1231.29L1000.11 1230.63L997.56 1230.15L994.95 1229.86L992.3 1229.77L989.6 1229.88L986.84 1230.21Z" id="b1HyOHRAQj"></path><radialGradient id="gradientcarpvXqJ3H" gradientUnits="userSpaceOnUse" cx="1162.39" cy="1401.18" r="217"><stop style="stop-color: #ffffff;stop-opacity: 1" offset="0%"></stop><stop style="stop-color: #5f6fed;stop-opacity: 1" offset="100%"></stop></radialGradient><path d="M1013.44 1429.91C996.31 1435.62 902.09 1428.49 902.09 1428.49C905.33 1429.53 921.5 1434.77 950.63 1444.19C942.92 1461.32 938.64 1470.84 937.78 1472.74C937.78 1472.74 1008.95 1473.44 1034.85 1469.89C1073.07 1464.65 1084.82 1434.2 1137.64 1432.77C1169.32 1431.91 1186.18 1435.62 1186.18 1435.62C1186.18 1435.62 1143.35 1401.36 1067.69 1405.65C1067.69 1405.65 1030.57 1424.2 1013.44 1429.91Z" id="a1mrAw7dSK"></path><linearGradient id="gradientaz12txGj" gradientUnits="userSpaceOnUse" x1="914.53" y1="1459.07" x2="1190.77" y2="1403.99"><stop style="stop-color: #5f6fed;stop-opacity: 1" offset="0%"></stop><stop style="stop-color: #ffffff;stop-opacity: 1" offset="100%"></stop></linearGradient><path d="M1174.21 1370.4C1159.72 1370.4 1136.01 1398.07 1142.59 1415.19C1149.18 1432.32 1200.56 1444.18 1216.37 1444.18C1230.45 1440.57 1243.25 1436.1 1257.21 1429.69C1257.21 1420.46 1259.96 1410.16 1252 1401.1C1245.76 1395.83 1188.7 1370.4 1174.21 1370.4Z" id="g9F7fCi0pI"></path><radialGradient id="gradiente4AcXkhbYt" gradientUnits="userSpaceOnUse" cx="1196.27" cy="1407.15" r="105.1"><stop style="stop-color: #5f6fed;stop-opacity: 1" offset="0%"></stop><stop style="stop-color: #bca6a6;stop-opacity: 1" offset="100%"></stop></radialGradient><path d="M1301.63 1464.63C1329.59 1469 1386.43 1478.57 1400.41 1473.33C1414.39 1468.09 1490.4 1452.36 1500.88 1435.76C1511.37 1419.16 1444.97 1416.54 1444.97 1416.54C1444.97 1416.54 1407.4 1440.13 1381.19 1441.88C1354.98 1443.62 1278.09 1425.28 1278.09 1425.28C1274.83 1426.15 1258.52 1430.52 1229.17 1438.38L1228.3 1443.63C1258.55 1454.72 1282.99 1461.72 1301.63 1464.63Z" id="bGj5vaV8V"></path><linearGradient id="gradientb2I8fbFNPO" gradientUnits="userSpaceOnUse" x1="1270.64" y1="1436.46" x2="1397.35" y2="1436.46"><stop style="stop-color: #cccccc;stop-opacity: 1" offset="0%"></stop><stop style="stop-color: #5f6fed;stop-opacity: 1" offset="100%"></stop></linearGradient><path d="M1472.19 1244.6L1476.91 1245.18L1481.55 1245.96L1486.08 1246.92L1490.51 1248.07L1494.84 1249.41L1499.06 1250.92L1503.17 1252.62L1507.15 1254.48L1511.02 1256.52L1514.77 1258.72L1518.39 1261.09L1521.88 1263.61L1525.23 1266.3L1528.45 1269.14L1531.52 1272.13L1534.45 1275.27L1537.23 1278.55L1539.86 1281.97L1542.34 1285.53L1544.65 1289.23L1546.81 1293.05L1548.79 1297.01L1550.61 1301.09L1552.25 1305.29L1553.72 1309.61L1555 1314.05L1556.1 1318.59L1557.02 1323.25L1557.74 1328.01L1558.26 1332.88L1558.59 1337.84L1558.72 1342.9L1558.64 1348.05L1558.35 1353.29L1557.85 1358.61L1557.13 1364.02L1556.26 1368.73L1555.09 1373.36L1553.63 1377.91L1551.89 1382.39L1549.88 1386.8L1547.61 1391.12L1545.08 1395.35L1542.32 1399.51L1539.32 1403.57L1536.1 1407.55L1532.66 1411.44L1529.02 1415.24L1525.18 1418.94L1521.16 1422.54L1516.96 1426.05L1512.6 1429.45L1508.08 1432.75L1503.41 1435.95L1498.6 1439.04L1493.66 1442.03L1488.6 1444.9L1483.44 1447.66L1478.17 1450.31L1472.81 1452.84L1467.37 1455.25L1461.85 1457.54L1456.28 1459.71L1450.65 1461.76L1444.97 1463.68L1439.26 1465.47L1433.53 1467.13L1427.78 1468.66L1422.02 1470.06L1416.27 1471.32L1410.53 1472.44L1404.81 1473.42L1399.12 1474.26L1393.47 1474.95L1387.87 1475.5L1382.34 1475.91L1376.81 1476.16L1371.25 1476.26L1365.67 1476.21L1360.07 1476.03L1354.46 1475.72L1348.85 1475.29L1343.25 1474.75L1337.67 1474.1L1332.12 1473.36L1326.61 1472.52L1321.15 1471.6L1315.74 1470.6L1310.4 1469.54L1305.13 1468.41L1299.94 1467.23L1294.85 1466.01L1289.85 1464.74L1284.97 1463.45L1280.21 1462.13L1275.57 1460.8L1271.08 1459.46L1266.72 1458.12L1262.53 1456.79L1258.5 1455.47L1254.64 1454.17L1250.97 1452.9L1247.49 1451.67L1244.21 1450.48L1241.14 1449.34L1238.29 1448.27L1235.67 1447.26L1233.29 1446.32L1231.15 1445.47L1229.27 1444.71L1227.65 1444.04L1226.3 1443.48L1225.24 1443.03L1224.47 1442.69L1224.01 1442.49L1223.85 1442.42L1223.81 1442.45L1223.81 1442.41L1223.86 1442.3L1223.95 1442.12L1224.09 1441.88L1224.26 1441.58L1224.47 1441.23L1224.72 1440.82L1225.01 1440.36L1225.32 1439.85L1225.67 1439.29L1226.06 1438.69L1226.46 1438.05L1226.9 1437.37L1227.37 1436.66L1227.85 1435.92L1228.36 1435.14L1228.89 1434.34L1229.44 1433.52L1230.01 1432.67L1230.6 1431.81L1231.2 1430.93L1231.81 1430.04L1232.43 1429.14L1233.07 1428.24L1233.71 1427.33L1234.36 1426.42L1235.02 1425.51L1235.68 1424.6L1236.34 1423.7L1237 1422.81L1237.66 1421.94L1238.32 1421.07L1238.97 1420.23L1239.62 1419.41L1240.27 1418.61L1240.9 1417.84L1241.52 1417.1L1242.13 1416.39L1242.73 1415.72L1243.55 1414.79L1244.83 1413.33L1246.54 1411.36L1248.67 1408.91L1251.2 1406.02L1254.11 1402.71L1257.39 1399.02L1261.01 1394.95L1264.96 1390.56L1269.22 1385.86L1273.78 1380.88L1278.6 1375.66L1283.69 1370.22L1289.01 1364.58L1294.55 1358.79L1300.3 1352.85L1306.23 1346.82L1312.33 1340.7L1318.58 1334.54L1324.96 1328.36L1331.45 1322.18L1338.03 1316.05L1344.7 1309.97L1351.42 1303.99L1358.18 1298.14L1364.97 1292.43L1371.76 1286.9L1378.54 1281.58L1385.29 1276.5L1391.99 1271.68L1398.63 1267.15L1405.18 1262.94L1411.63 1259.09L1417.95 1255.61L1424.14 1252.54L1430.18 1249.9L1436.04 1247.73L1441.71 1246.04L1447.16 1244.88L1452.4 1244.27L1457.47 1244.05L1462.46 1244.03L1467.37 1244.22L1472.19 1244.6ZM1417.82 1273.02L1415.68 1273.16L1413.59 1273.34L1411.56 1273.56L1409.62 1273.82L1407.75 1274.11L1405.98 1274.41L1403.99 1274.95L1401.99 1275.6L1399.97 1276.35L1397.94 1277.19L1395.9 1278.13L1393.85 1279.15L1391.8 1280.24L1389.75 1281.42L1387.71 1282.65L1385.67 1283.95L1383.64 1285.3L1381.63 1286.7L1379.63 1288.15L1377.65 1289.63L1375.69 1291.14L1373.76 1292.67L1371.86 1294.23L1369.99 1295.79L1368.15 1297.37L1366.35 1298.94L1364.6 1300.51L1362.88 1302.06L1361.22 1303.6L1359.6 1305.12L1358.04 1306.6L1356.54 1308.05L1355.09 1309.46L1353.71 1310.82L1352.4 1312.13L1351.15 1313.38L1349.98 1314.56L1348.88 1315.67L1347.87 1316.71L1346.93 1317.66L1346.08 1318.52L1345.32 1319.28L1344.64 1319.95L1344.07 1320.51L1343.59 1320.95L1343.21 1321.27L1342.69 1321.74L1341.81 1322.59L1340.58 1323.82L1339.03 1325.39L1337.17 1327.29L1335.02 1329.5L1332.61 1332L1329.95 1334.76L1327.06 1337.77L1323.97 1341L1320.69 1344.43L1317.23 1348.04L1313.63 1351.82L1309.9 1355.73L1306.06 1359.76L1302.13 1363.9L1298.13 1368.1L1294.08 1372.37L1290 1376.67L1285.91 1380.98L1281.82 1385.29L1277.77 1389.57L1273.76 1393.8L1269.81 1397.96L1265.96 1402.04L1262.21 1406L1258.58 1409.83L1255.11 1413.5L1251.79 1417.01L1248.67 1420.31L1245.74 1423.41L1243.05 1426.26L1240.59 1428.86L1238.4 1431.18L1236.49 1433.2L1234.89 1434.9L1233.6 1436.25L1232.66 1437.25L1232.09 1437.86L1231.89 1438.07L1231.95 1438.19L1232.25 1438.41L1232.79 1438.72L1233.56 1439.12L1234.56 1439.6L1235.77 1440.17L1237.2 1440.8L1238.84 1441.5L1240.68 1442.26L1242.71 1443.07L1244.93 1443.93L1247.33 1444.84L1249.91 1445.78L1252.66 1446.75L1255.58 1447.75L1258.65 1448.78L1261.88 1449.81L1265.25 1450.85L1268.76 1451.9L1272.41 1452.95L1276.18 1453.98L1280.07 1455.01L1284.08 1456.01L1288.2 1456.99L1292.43 1457.94L1296.75 1458.85L1301.16 1459.71L1305.66 1460.53L1310.23 1461.3L1314.88 1462.01L1319.6 1462.65L1324.37 1463.22L1329.2 1463.71L1334.08 1464.12L1339 1464.45L1343.96 1464.68L1348.95 1464.81L1353.96 1464.83L1358.99 1464.75L1364.03 1464.55L1369.01 1464.16L1373.86 1463.52L1378.59 1462.64L1383.18 1461.53L1387.65 1460.2L1391.99 1458.66L1396.21 1456.91L1400.3 1454.97L1404.27 1452.84L1408.11 1450.54L1411.83 1448.06L1415.43 1445.43L1418.91 1442.65L1422.27 1439.72L1425.5 1436.67L1428.62 1433.49L1431.62 1430.19L1434.5 1426.79L1437.26 1423.3L1439.91 1419.71L1442.44 1416.05L1444.86 1412.32L1447.16 1408.52L1449.35 1404.67L1451.42 1400.79L1453.38 1396.86L1455.23 1392.91L1456.97 1388.95L1458.6 1384.98L1460.12 1381.01L1461.53 1377.05L1462.83 1373.11L1464.03 1369.2L1465.12 1365.32L1466.1 1361.49L1466.97 1357.72L1467.75 1354.01L1468.41 1350.38L1468.98 1346.83L1469.44 1343.36L1469.99 1337.99L1470.34 1332.88L1470.48 1328.04L1470.43 1323.46L1470.19 1319.12L1469.78 1315.03L1469.19 1311.18L1468.44 1307.56L1467.54 1304.17L1466.49 1300.99L1465.3 1298.02L1463.98 1295.26L1462.53 1292.7L1460.98 1290.32L1459.31 1288.14L1457.55 1286.13L1455.69 1284.29L1453.75 1282.62L1451.74 1281.11L1449.65 1279.75L1447.51 1278.53L1445.32 1277.46L1443.08 1276.52L1440.81 1275.7L1438.5 1275L1436.18 1274.42L1433.85 1273.94L1431.51 1273.56L1429.17 1273.28L1426.85 1273.08L1424.54 1272.96L1422.27 1272.91L1420.02 1272.94L1417.82 1273.02Z" id="c11WultlrA"></path><linearGradient id="gradiente2AJTj9zjA" gradientUnits="userSpaceOnUse" x1="1588.08" y1="1261.8" x2="1358.17" y2="1463.33"><stop style="stop-color: #5f6fed;stop-opacity: 1" offset="0%"></stop><stop style="stop-color: #ffffff;stop-opacity: 1" offset="100%"></stop></linearGradient><path d="M1274.53 1427.03C1274.53 1427.03 1340.7 1368.37 1348.14 1364.92C1386.26 1332.14 1433.83 1320.04 1473.02 1334.72C1473.02 1334.72 1468.89 1282.1 1455.65 1275.2C1442.42 1268.3 1406.03 1263.12 1406.03 1263.12C1406.03 1263.12 1356.81 1297.55 1351.02 1303.59C1345.23 1309.63 1261.04 1395.95 1261.04 1395.95C1259.28 1398.11 1250.5 1408.87 1234.7 1428.25L1229.44 1439.52L1234.01 1437.38C1258.32 1431.17 1271.83 1427.72 1274.53 1427.03Z" id="egoGgQ7wh"></path><linearGradient id="gradientdFE9L8fa4" gradientUnits="userSpaceOnUse" x1="1399.87" y1="1313.63" x2="1197.03" y2="1460.91"><stop style="stop-color: #5f6fed;stop-opacity: 1" offset="0%"></stop><stop style="stop-color: #cccccc;stop-opacity: 1" offset="100%"></stop></linearGradient></defs><g><g><g><use xlink:href="#fvTtHjxRz" opacity="1" fill="url(#gradientb1eO5JaLJi)"></use><g><use xlink:href="#fvTtHjxRz" opacity="1" fill-opacity="0" stroke="#000000" stroke-width="0.2" stroke-opacity="0"></use></g></g><g><use xlink:href="#a4ZIAOGWH6" opacity="1" fill="url(#gradienta8QiQBu9S)"></use><g><use xlink:href="#a4ZIAOGWH6" opacity="1" fill-opacity="0" stroke="#000000" stroke-width="0.2" stroke-opacity="0"></use></g></g><g><use xlink:href="#e5b9M8xe6" opacity="1" fill="url(#gradientb1x8IjzPXG)"></use><g><use xlink:href="#e5b9M8xe6" opacity="1" fill-opacity="0" stroke="#000000" stroke-width="0.2" stroke-opacity="0"></use></g></g><g><use xlink:href="#onqlCXlP" opacity="1" fill="url(#gradientcK8obP2ZP)"></use><g><use xlink:href="#onqlCXlP" opacity="1" fill-opacity="0" stroke="#000000" stroke-width="0.2" stroke-opacity="0"></use></g></g><g><use xlink:href="#a41Y6UEAQ" opacity="1" fill="url(#gradienta63YUMLiUh)"></use><g><use xlink:href="#a41Y6UEAQ" opacity="1" fill-opacity="0" stroke="#000000" stroke-width="1" stroke-opacity="0"></use></g></g><g><use xlink:href="#aoaC3u9ml" opacity="1" fill="url(#gradientb6NtX5H7RR)"></use><g><use xlink:href="#aoaC3u9ml" opacity="1" fill-opacity="0" stroke="#000000" stroke-width="0.2" stroke-opacity="0"></use></g></g><g><use xlink:href="#b1HyOHRAQj" opacity="1" fill="url(#gradientcarpvXqJ3H)"></use><g><use xlink:href="#b1HyOHRAQj" opacity="1" fill-opacity="0" stroke="#000000" stroke-width="0.2" stroke-opacity="0"></use></g></g><g><use xlink:href="#a1mrAw7dSK" opacity="1" fill="url(#gradientaz12txGj)"></use><g><use xlink:href="#a1mrAw7dSK" opacity="1" fill-opacity="0" stroke="#000000" stroke-width="0.2" stroke-opacity="0"></use></g></g><g><use xlink:href="#g9F7fCi0pI" opacity="1" fill="url(#gradiente4AcXkhbYt)"></use><g><use xlink:href="#g9F7fCi0pI" opacity="1" fill-opacity="0" stroke="#000000" stroke-width="0.2" stroke-opacity="0"></use></g></g><g><use xlink:href="#bGj5vaV8V" opacity="1" fill="url(#gradientb2I8fbFNPO)"></use><g><use xlink:href="#bGj5vaV8V" opacity="1" fill-opacity="0" stroke="#000000" stroke-width="0.2" stroke-opacity="0"></use></g></g><g><use xlink:href="#c11WultlrA" opacity="1" fill="url(#gradiente2AJTj9zjA)"></use><g><use xlink:href="#c11WultlrA" opacity="1" fill-opacity="0" stroke="#000000" stroke-width="0.2" stroke-opacity="0"></use></g></g><g><use xlink:href="#egoGgQ7wh" opacity="1" fill="url(#gradientdFE9L8fa4)"></use><g><use xlink:href="#egoGgQ7wh" opacity="1" fill-opacity="0" stroke="#000000" stroke-width="0.2" stroke-opacity="0"></use></g></g></g></g></svg>